<svg version="1.2" xmlns="http://www.w3.org/2000/svg" viewBox="0 0 1280 1420" width="1280" height="1420">
	<title>vecteezy_paper-notes-and-binder-clips-illustration_67718495</title>
	<style>
		.s0 { fill: #27292a } 
		.s1 { fill: #333735 } 
		.s2 { fill: #f3f1b1 } 
		.s3 { fill: #202a23 } 
		.s4 { fill: #c9caca } 
	</style>
	<g id="_Artboards_">
	</g>
	<g id="Layer 1">
		<g id="&lt;Group&gt;">
			<path id="&lt;Path&gt;" class="s0" d="m159.5 30.8c16-28.8 62.6-29.8 79-1 13.4 20.2 4.2 44.5 1.9 66.4q-5.9-0.5-11.7-1.1c1.8-14.3 5.1-28.5 4.9-43-0.9-19.5-21.5-35.4-40.6-31-12.5 2-23.5 11.2-26.9 23.5-6.5 21.9-7.4 45-12.2 67.3-1.6-0.2-5-0.8-6.7-1.1l-4.6-1.7c6.7-25.8 4.5-54.2 16.9-78.3z"/>
			<path id="&lt;Path&gt;" class="s1" d="m225.1 117.5c1.2-7.5 2.4-14.9 3.6-22.4q5.8 0.6 11.7 1.1c-1.2 7.1-2.3 14.1-3.5 21.2-6.9 40.4-12.8 81.1-19.3 121.6-0.8 6.6-2.8 13.3-8 17.9-5.8 26.5-6.1 54-13.7 80.1-7.1 23.2-36.5 34.1-57.8 23.8-17.2-8.1-27.3-28.3-23.5-46.9 5.8-36.8 12.5-73.5 17.8-110.3 3.5 3 7 6.1 10.6 9.3-5.1 33.6-10.9 67-15.8 100.7-2.1 10.6 0.1 22.4 8.3 30 14.5 16.9 46 7.1 50-14.2 5-19 7.7-38.6 6.8-58.2 5.1-39.2 13-78.1 17.9-117.3 2.4-0.5 7.2-1.5 9.7-2q2.3-17.3 5.2-34.4z"/>
			<path id="&lt;Path&gt;" class="s2" d="m27.6 113.4c39.8-2 80.2 4.4 119.6-2.6 1.7 0.3 5.1 0.9 6.7 1.1 22.4 9.4 47.6 3 71.2 5.6q-2.9 17.1-5.2 34.4c-2.5 0.5-7.3 1.5-9.7 2-4.9 39.2-12.8 78.1-17.9 117.3 0.9 19.6-1.8 39.2-6.8 58.2-4 21.3-35.5 31.1-50 14.2-8.2-7.6-10.4-19.4-8.3-30 4.9-33.7 10.7-67.1 15.8-100.7 2.8-21.2 7.7-42.1 9.4-63.4l-1.8-2.9c-2.3-0.3-6.7-0.8-9-1.1-3.3 19.3-6.1 38.7-9.2 58.1-5.3 36.8-12 73.5-17.8 110.3-3.8 18.6 6.3 38.8 23.5 46.9 21.3 10.3 50.7-0.6 57.8-23.8 7.6-26.1 7.9-53.6 13.7-80.1 5.2-4.6 7.2-11.3 8-17.9 6.5-40.5 12.4-81.2 19.3-121.6 43.9 0.4 87.9-0.5 131.8 2 111.9 0.6 223.7 4.2 335.5 5.3 142.1 2.3 284.1 3.4 426.1 6.5 34.8 0.4 69.5 0.8 104.3 0.8-0.2 17.3-0.4 34.6-1.1 51.9-0.4 121.5-4 242.9-4.4 364.3-3.4 263.5-6.3 527-8.8 790.5-101.7 1.8-203.4-2.6-305.2-2.8-96.3-0.7-192.6-3.3-288.9-3.9-98.9-0.5-197.8-3.3-296.7-3.9-92.6-0.5-185.3-1.5-277.9-4.1-13.5-0.6-26.9-0.4-40.4-0.4 1.9-142.6 4.4-285.1 5.1-427.7 2.6-76.8 2.2-153.7 3.2-230.6 2.6-184 4.8-368 8.1-551.9z"/>
			<path id="&lt;Path&gt;" class="s3" d="m141.6 145.5c2.3 0.3 6.7 0.8 9 1.1l1.8 2.9c-1.7 21.3-6.6 42.2-9.4 63.4-3.6-3.2-7.1-6.3-10.6-9.3 3.1-19.4 5.9-38.8 9.2-58.1z"/>
			<path id="&lt;Path&gt;" class="s4" d="m1233.5 183.9c3-0.5 9-1.6 12-2.1 1.2 41.4-2.5 82.8-3.1 124.2-3.7 208.5 5.3 416.8 11.4 625.1 5 158 14.2 315.8 18.3 473.7-190.5-8.1-381-19.4-571.6-25-121.1-4.1-242.1-7.8-363.2-9.7-95.2-1.1-190.5-5.1-285.8-2.2-1.5-14.6-0.9-29.3 0.1-43.9 92.6 2.6 185.3 3.6 277.9 4.1 98.9 0.6 197.8 3.4 296.7 3.9 96.3 0.6 192.6 3.2 288.9 3.9 101.8 0.2 203.5 4.6 305.2 2.8 2.5-263.5 5.4-527 8.8-790.5 0.4-121.4 4-242.8 4.4-364.3z"/>
		</g>
	</g>
</svg>